<svg xmlns="http://www.w3.org/2000/svg" viewBox="0 0 57.36 58.21"><defs><style>.cls-1{fill:#231f20;}</style></defs><title>IGicon</title><g id="Layer_2" data-name="Layer 2"><g id="Layer_1-2" data-name="Layer 1"><path class="cls-1" d="M28.38,45.29A13.84,13.84,0,1,1,42.21,31.46,13.85,13.85,0,0,1,28.38,45.29Zm0-21.67a7.84,7.84,0,1,0,7.83,7.84A7.85,7.85,0,0,0,28.38,23.62Z"/><circle class="cls-1" cx="41.56" cy="15.07" r="3.31"/><path class="cls-1" d="M40.15,58.21H17.21A17.23,17.23,0,0,1,0,41V17.21A17.23,17.23,0,0,1,17.21,0H40.15A17.23,17.23,0,0,1,57.36,17.21V41A17.23,17.23,0,0,1,40.15,58.21ZM17.21,7A10.22,10.22,0,0,0,7,17.21V41A10.22,10.22,0,0,0,17.21,51.21H40.15A10.22,10.22,0,0,0,50.36,41V17.21A10.22,10.22,0,0,0,40.15,7Z"/></g></g></svg>